Coordinates
version=1
nRows=27
nColumns=12
inDegrees=yes

Units are S.I. units (second, meters, Newtons, ...)
Angles are in degrees

endheader
time	SC_y	SC_z	SC_x	AC_y	AC_z	AC_x	GH_y	GH_z	GH_yy	EL_x	PS_y
       0.0               -14.5          37.24          8.657          59.21         -16.29         -5.514          -86.7          65.18         -173.1          82.19           23.6
   0.04698              -14.51          37.24          8.666          59.21         -16.29         -5.515          -86.7          65.18         -173.1          82.19           23.6
   0.09395              -14.51          37.23          8.676          59.21         -16.28         -5.515         -86.69          65.17         -173.1          82.19           23.6
    0.1409              -14.51          37.23          8.686          59.21         -16.28         -5.515         -86.69          65.17         -173.1          82.18           23.6
    0.1879              -14.51          37.22          8.697          59.21         -16.28         -5.515         -86.69          65.16         -173.0          82.18           23.6
    0.2349              -14.51          37.22          8.708          59.21         -16.27         -5.516         -86.68          65.16         -173.0          82.18          23.61
    0.2819              -14.51          37.21          8.721          59.21         -16.27         -5.516         -86.68          65.16         -173.0          82.17          23.61
    0.3288              -14.51           37.2          8.734          59.21         -16.26         -5.516         -86.67          65.15         -173.0          82.17          23.61
    0.3758              -14.52           37.2          8.748          59.21         -16.26         -5.517         -86.67          65.14         -172.9          82.17          23.61
    0.4228              -14.52          37.19          8.763          59.21         -16.25         -5.517         -86.66          65.14         -172.9          82.16          23.61
    0.4698              -14.52          37.18           8.78          59.21         -16.25         -5.518         -86.66          65.13         -172.8          82.16          23.62
    0.5167              -14.52          37.17          8.797          59.21         -16.24         -5.518         -86.65          65.13         -172.8          82.15          23.62
    0.5637              -14.53          37.17          8.816          59.21         -16.23         -5.518         -86.64          65.12         -172.8          82.15          23.62
    0.6107              -14.53          37.16          8.837           59.2         -16.23         -5.519         -86.64          65.11         -172.7          82.14          23.62
    0.6577              -14.53          37.14          8.859           59.2         -16.22          -5.52         -86.63           65.1         -172.7          82.14          23.63
    0.7047              -14.53          37.13          8.883           59.2         -16.21          -5.52         -86.62          65.09         -172.6          82.13          23.63
    0.7516              -14.54          37.12          8.909           59.2          -16.2         -5.521         -86.61          65.08         -172.6          82.12          23.64
    0.7986              -14.54          37.11          8.937           59.2         -16.19         -5.521          -86.6          65.07         -172.5          82.11          23.64
    0.8456              -14.54          37.09          8.968           59.2         -16.18         -5.522         -86.59          65.06         -172.4          82.11          23.64
    0.8926              -14.55          37.08          9.002           59.2         -16.17         -5.523         -86.58          65.04         -172.4           82.1          23.65
    0.9395              -14.55          37.06          9.039           59.2         -16.16         -5.524         -86.57          65.03         -172.3          82.09          23.66
    0.9865              -14.56          37.04          9.081           59.2         -16.14         -5.525         -86.55          65.01         -172.2          82.07          23.66
     1.033              -14.57          37.02          9.126           59.2         -16.13         -5.526         -86.53           65.0         -172.1          82.06          23.67
      1.08              -14.57          36.99          9.176           59.2         -16.11         -5.527         -86.52          64.98         -172.0          82.05          23.68
     1.127              -14.58          36.96          9.232           59.2         -16.09         -5.529          -86.5          64.95         -171.8          82.03          23.68
     1.174              -14.59          36.93          9.294           59.2         -16.07          -5.53         -86.48          64.93         -171.7          82.01          23.69
     1.221               -14.6           36.9          9.364           59.2         -16.05         -5.532         -86.45           64.9         -171.5          81.99           23.7
